# xmcd
#
# Track frame offsets: 
#        150
#        20819
#        39589
#        63104
#        82693
#        101774
#        115031
#        135684
#        155695
#        172227
#
# Disc length: 3148 seconds
#
# Revision: 0
# Processed by: cddbd v1.5.2PL0 Copyright (c) Steve Scherf et al.
# Submitted via: ExactAudioCopy v0.95b4
#
DISCID=7f0c4a0a
DTITLE=Cory Morrow - Vagrants and Kings
DYEAR=2008
DGENRE=Texas Country
TTITLE0=He Carries Me
TTITLE1=I Can Wait
TTITLE2=All Said And Done
TTITLE3=Love Finds Everyone
TTITLE4=Lord, You Devil
TTITLE5=Gettin' Ready To Rain
TTITLE6=My Baby And Me
TTITLE7=Ten Mile Road
TTITLE8=Radiates
TTITLE9=Worth It
EXTD=
EXTT0=
EXTT1=
EXTT2=
EXTT3=
EXTT4=
EXTT5=
EXTT6=
EXTT7=
EXTT8=
EXTT9=
PLAYORDER=
